# xmcd
#
# Track frame offsets:
#	150
#	12331
#	22065
#	33945
#	44394
#	55933
#	66463
#	76350
#	82994
#	93411
#	103531
#	113130
#	121344
#	131213
#	141923
#	152130
#	163803
#	175326
#	186323
#	194903
#	205918
#	217696
#	229570
#	239267
#	250312
#	258901
#	268694
#	280155
#	291569
#	302678
#	313443
#	324652
#
# Disc length: 4478 seconds
#
# Revision: 1
# Processed by: cddbd v1.5.2PL0 Copyright (c) Steve Scherf et al.
# Submitted via: EZCDAudioConverter 7.1.1.1
#
DISCID=e4117c20
DTITLE=Various Artist - Rockin' Hillbilly - Vol. 08
DYEAR=1900
DGENRE=Hillbilly
TTITLE0=Kenny Roberts - Hillbilly Style
TTITLE1=Lee Bonds - I'm Lookin' For Some Lovin'
TTITLE2=Tibby Edwards - You Made A Believer Out Of Me
TTITLE3=Randy Atcher - Why Look For Sugar
TTITLE4=Ricky Riddle - Steamboat Boogie
TTITLE5=Bill Carter - You Ain't Got My Adress
TTITLE6=Ray Pennington - Fancy Free
TTITLE7=Del Lavon - Rockin' Chair
TTITLE8=Roll Jimmie Logsdon - I'm Going Back To Tennessee
TTITLE9=Luke McDaniel - I Can't Go
TTITLE10=Billy Jack Wills - Hey Lula
TTITLE11=Bud Titus - Hocus Pocus
TTITLE12=Lucky Hill - Fickle Baby
TTITLE13=Jimmie Skinner - I'm Allergic To Your Kisses
TTITLE14=Hawkshaw Hawkins - Waitin' For My Baby
TTITLE15=Kenny Brown - Throw A Little Wood On The Fire
TTITLE16=Sonny Burns - Satan's A Waitin'
TTITLE17=Jimmy Johnson - Mama Loves Papa
TTITLE18=Kenny Lee - You Ring A Bell With Me
TTITLE19=Randy Atcher - You're A Living Doll
TTITLE20=Neal Burris - Please Excuse My Manners
TTITLE21=Earl Songer - Mother In Law Boogie
TTITLE22=Claude King - Got The World By The Tail
TTITLE23=Shot Jackson - I'm Trading You In On A Later Model
TTITLE24=Sheb Wooley - Humdinger
TTITLE25=Rod Morris - Is There Any More At Home Like You ?
TTITLE26=Billy Briggs - Female Shuffle
TTITLE27=Les Chambers - Give Me A Little More
TTITLE28=Hank Thompson - Cryin' In The Deep Blue Sea
TTITLE29=Eddie Noack - Take It Away
TTITLE30=Lucky Red Perkins - One At A Time
TTITLE31=Slim Lay - Trouble Along The Cable
EXTD=
EXTT0=
EXTT1=
EXTT2=
EXTT3=
EXTT4=
EXTT5=
EXTT6=
EXTT7=
EXTT8=
EXTT9=
EXTT10=
EXTT11=
EXTT12=
EXTT13=
EXTT14=
EXTT15=
EXTT16=
EXTT17=
EXTT18=
EXTT19=
EXTT20=
EXTT21=
EXTT22=
EXTT23=
EXTT24=
EXTT25=
EXTT26=
EXTT27=
EXTT28=
EXTT29=
EXTT30=
EXTT31=
PLAYORDER=
